<svg width="20" height="20" viewBox="0 0 20 20" fill="none" xmlns="http://www.w3.org/2000/svg">
<path d="M10.25 0.569301C12.25 0.569301 14.25 0.569301 16.25 0.569301C17.1718 0.610988 18.0447 0.996913 18.6963 1.65036C19.3478 2.3038 19.7309 3.1776 19.77 4.09957C19.77 4.25957 19.77 4.41981 19.77 4.58981V15.4892C19.8286 16.242 19.6549 16.9955 19.2722 17.6465C18.8895 18.2974 18.3164 18.815 17.6301 19.1298C17.0619 19.3888 16.4444 19.5215 15.82 19.5195C12.12 19.5195 8.42018 19.5195 4.72018 19.5195C4.191 19.5427 3.66273 19.4552 3.16964 19.2617C2.67656 19.0682 2.22957 18.7733 1.85739 18.3965C1.4852 18.0196 1.19602 17.5687 1.00875 17.0732C0.821487 16.5777 0.740127 16.0483 0.769985 15.5195C0.769985 11.8262 0.769985 8.13993 0.769985 4.45993C0.737906 3.92627 0.819571 3.39141 1.00924 2.89157C1.19891 2.39173 1.4923 1.93757 1.87033 1.55954C2.24836 1.1815 2.70227 0.888856 3.20211 0.699184C3.70195 0.509512 4.23633 0.427848 4.76999 0.459926C6.59999 0.459926 8.43999 0.459926 10.28 0.459926L10.25 0.569301ZM15.8601 9.10934C16.0112 9.91802 15.9829 10.7503 15.7773 11.5468C15.5717 12.3434 15.1938 13.0852 14.6701 13.7197C14.1585 14.3699 13.5073 14.8975 12.7649 15.2627C12.0224 15.6278 11.2075 15.8217 10.3801 15.83C9.01882 15.8841 7.68714 15.4235 6.65011 14.54C5.86407 13.899 5.26403 13.0588 4.91232 12.1074C4.56061 11.156 4.47007 10.128 4.65011 9.12985H2.65011V9.47946C2.65011 11.4795 2.65011 13.5393 2.65011 15.5693C2.62204 15.8494 2.65658 16.1323 2.75119 16.3974C2.84579 16.6625 2.99794 16.9035 3.19699 17.1025C3.39603 17.3015 3.63695 17.4542 3.90207 17.5488C4.16718 17.6434 4.44986 17.6775 4.72995 17.6494H15.7299C16.0131 17.6793 16.2995 17.6457 16.5678 17.5507C16.8362 17.4558 17.0799 17.3019 17.2812 17.1006C17.4825 16.8993 17.6362 16.656 17.7312 16.3877C17.8261 16.1193 17.8599 15.8329 17.83 15.5498V9.49997C17.83 9.36997 17.83 9.24934 17.83 9.10934H15.8601ZM10.26 6.25973C9.50996 6.25775 8.7764 6.47827 8.15182 6.89352C7.52724 7.30877 7.03982 7.90038 6.75143 8.59274C6.46304 9.28509 6.3866 10.0473 6.5317 10.7832C6.67681 11.519 7.03698 12.1945 7.56662 12.7256C8.09626 13.2566 8.77159 13.6195 9.50705 13.7666C10.2425 13.9136 11.0051 13.8383 11.6982 13.5517C12.3913 13.2652 12.9837 12.7797 13.4006 12.1562C13.8175 11.5327 14.04 10.7998 14.04 10.0498C14.04 9.04633 13.6422 8.08349 12.9336 7.37301C12.225 6.66254 11.2634 6.26238 10.26 6.25973ZM14.08 6.25973H16.8801V3.45993H14.08V6.25973Z" fill="black"/>
</svg>
